<svg width="264" height="59" viewBox="0 0 264 59" fill="none" xmlns="http://www.w3.org/2000/svg">
<path d="M7.44 56C6.76 56 6.26 55.84 5.94 55.52C5.62 55.2 5.46 54.7 5.46 54.02V15.38C5.46 14.38 6.38 13.88 8.22 13.88H9.12C10.96 13.88 11.88 14.38 11.88 15.38V50.48H27.36C27.84 50.48 28.18 50.66 28.38 51.02C28.62 51.34 28.74 51.88 28.74 52.64V53.84C28.74 54.6 28.62 55.16 28.38 55.52C28.18 55.84 27.84 56 27.36 56H7.44ZM42.8025 56.42C39.7625 56.42 37.4025 55.58 35.7225 53.9C34.0825 52.18 33.2625 49.78 33.2625 46.7V26C33.2625 25 34.1825 24.5 36.0225 24.5H36.6825C38.5225 24.5 39.4425 25 39.4425 26V45.98C39.4425 47.62 39.9025 48.9 40.8225 49.82C41.7425 50.7 43.0825 51.14 44.8425 51.14C46.1225 51.14 47.3625 50.78 48.5625 50.06C49.7625 49.3 50.7625 48.34 51.5625 47.18V26C51.5625 25 52.4825 24.5 54.3225 24.5H54.9825C56.8225 24.5 57.7425 25 57.7425 26V46.64C57.7425 49.32 57.8625 51.26 58.1025 52.46C58.3425 53.66 58.4625 54.34 58.4625 54.5C58.4625 55.06 57.9625 55.46 56.9625 55.7C55.9625 55.94 55.0425 56.06 54.2025 56.06C53.6025 56.06 53.1625 55.76 52.8825 55.16C52.6425 54.56 52.4425 53.92 52.2825 53.24C52.1625 52.56 52.0825 52.1 52.0425 51.86C50.8825 53.26 49.4825 54.38 47.8425 55.22C46.2025 56.02 44.5225 56.42 42.8025 56.42ZM80.2809 56.42C75.2409 56.42 71.5009 55.14 69.0609 52.58C66.6209 49.98 65.4009 45.88 65.4009 40.28C65.4009 34.64 66.7209 30.56 69.3609 28.04C72.0409 25.48 75.5809 24.2 79.9809 24.2C82.3009 24.2 84.4209 24.52 86.3409 25.16C88.3009 25.76 89.2809 26.5 89.2809 27.38C89.2809 27.94 89.0009 28.7 88.4409 29.66C87.8809 30.58 87.3809 31.04 86.9409 31.04C86.9009 31.04 86.6409 30.94 86.1609 30.74C85.2409 30.34 84.3009 30 83.3409 29.72C82.4209 29.44 81.3209 29.3 80.0409 29.3C77.3609 29.3 75.3209 30.18 73.9209 31.94C72.5609 33.66 71.8809 36.38 71.8809 40.1C71.8809 44.02 72.5209 46.88 73.8009 48.68C75.1209 50.44 77.3009 51.32 80.3409 51.32C81.7409 51.32 82.9409 51.18 83.9409 50.9C84.9809 50.58 85.9609 50.2 86.8809 49.76C87.3609 49.6 87.6209 49.52 87.6609 49.52C88.1009 49.52 88.6009 49.98 89.1609 50.9C89.7209 51.78 90.0009 52.48 90.0009 53C90.0009 53.92 88.9409 54.72 86.8209 55.4C84.7409 56.08 82.5609 56.42 80.2809 56.42ZM120.682 54.2C121.002 54.68 121.162 55.04 121.162 55.28C121.162 55.56 120.942 55.78 120.502 55.94C120.062 56.06 119.322 56.12 118.282 56.12H117.442C116.602 56.12 115.902 56.06 115.342 55.94C114.782 55.82 114.362 55.58 114.082 55.22L103.102 41.12L102.862 41.18V54.62C102.862 55.62 101.962 56.12 100.162 56.12H99.502C97.662 56.12 96.742 55.62 96.742 54.62V12.32C96.742 11.32 97.662 10.82 99.502 10.82H100.162C101.962 10.82 102.862 11.32 102.862 12.32V38.3H103.102L113.362 25.4C113.882 24.8 115.002 24.5 116.722 24.5H117.502C118.302 24.5 118.902 24.58 119.302 24.74C119.742 24.9 119.962 25.1 119.962 25.34C119.962 25.7 119.762 26.1 119.362 26.54L109.102 39.38L120.682 54.2ZM148.131 24.5C149.931 24.5 150.831 24.86 150.831 25.58C150.831 25.78 150.771 26.1 150.651 26.54L135.711 67.16C135.431 68 134.451 68.42 132.771 68.42H131.811C130.171 68.42 129.351 68.08 129.351 67.4C129.351 67.28 129.451 66.94 129.651 66.38L134.331 54.74L124.011 26.48C123.891 26 123.831 25.7 123.831 25.58C123.831 24.86 124.791 24.5 126.711 24.5H127.611C129.171 24.5 130.051 24.84 130.251 25.52L135.651 40.34C136.171 41.7 136.791 43.82 137.511 46.7H137.631L138.111 45.08C138.671 43.12 139.151 41.54 139.551 40.34L144.831 25.52C145.031 24.84 145.951 24.5 147.591 24.5H148.131ZM174.438 56.42C167.798 56.42 162.898 54.68 159.738 51.2C156.578 47.72 154.998 42.3 154.998 34.94C154.998 20.7 161.518 13.58 174.558 13.58C176.518 13.58 178.438 13.8 180.318 14.24C182.238 14.64 183.758 15.16 184.878 15.8C185.878 16.4 186.378 16.96 186.378 17.48C186.378 18.12 186.058 18.96 185.418 20C184.818 21.04 184.278 21.56 183.798 21.56C183.678 21.56 183.178 21.34 182.298 20.9C181.418 20.46 180.338 20.06 179.058 19.7C177.778 19.34 176.298 19.16 174.618 19.16C170.178 19.16 166.898 20.44 164.778 23C162.658 25.52 161.598 29.52 161.598 35C161.598 40.4 162.638 44.4 164.718 47C166.838 49.6 170.078 50.9 174.438 50.9C176.358 50.9 178.018 50.68 179.418 50.24C180.818 49.76 182.158 49.2 183.438 48.56C183.998 48.24 184.378 48.08 184.578 48.08C184.938 48.08 185.298 48.34 185.658 48.86C186.058 49.34 186.398 49.9 186.678 50.54C186.958 51.14 187.098 51.58 187.098 51.86C187.098 52.66 186.438 53.4 185.118 54.08C183.918 54.76 182.338 55.32 180.378 55.76C178.418 56.2 176.438 56.42 174.438 56.42ZM206.066 56.42C201.466 56.42 197.966 55.06 195.566 52.34C193.166 49.58 191.966 45.6 191.966 40.4C191.966 35.2 193.186 31.2 195.626 28.4C198.066 25.6 201.546 24.2 206.066 24.2C210.586 24.2 214.026 25.6 216.386 28.4C218.786 31.16 219.986 35.16 219.986 40.4C219.986 45.6 218.806 49.58 216.446 52.34C214.086 55.06 210.626 56.42 206.066 56.42ZM205.946 51.32C208.586 51.32 210.526 50.42 211.766 48.62C213.046 46.82 213.686 44.06 213.686 40.34C213.686 36.62 213.046 33.86 211.766 32.06C210.526 30.22 208.586 29.3 205.946 29.3C203.346 29.3 201.426 30.22 200.186 32.06C198.946 33.86 198.326 36.62 198.326 40.34C198.326 44.06 198.926 46.82 200.126 48.62C201.366 50.42 203.306 51.32 205.946 51.32ZM230.986 19.46C228.906 19.46 227.866 18.9 227.866 17.78V14.24C227.866 13.12 228.946 12.56 231.106 12.56C233.186 12.56 234.226 13.12 234.226 14.24V17.78C234.226 18.9 233.146 19.46 230.986 19.46ZM230.746 56.12C228.906 56.12 227.986 55.62 227.986 54.62V26C227.986 25 228.906 24.5 230.746 24.5H231.346C233.186 24.5 234.106 25 234.106 26V54.62C234.106 55.62 233.186 56.12 231.346 56.12H230.746ZM246.445 56.12C244.605 56.12 243.685 55.62 243.685 54.62V34.16C243.685 31.52 243.565 29.6 243.325 28.4C243.085 27.2 242.965 26.52 242.965 26.36C242.965 25.8 243.465 25.4 244.465 25.16C245.465 24.92 246.385 24.8 247.225 24.8C247.825 24.8 248.245 25.08 248.485 25.64C248.765 26.2 248.965 26.8 249.085 27.44C249.245 28.08 249.345 28.52 249.385 28.76C250.585 27.36 252.005 26.26 253.645 25.46C255.285 24.62 256.945 24.2 258.625 24.2C261.665 24.2 264.005 25.06 265.645 26.78C267.325 28.46 268.165 30.84 268.165 33.92V54.62C268.165 55.62 267.245 56.12 265.405 56.12H264.745C262.905 56.12 261.985 55.62 261.985 54.62V34.64C261.985 33 261.525 31.74 260.605 30.86C259.685 29.94 258.345 29.48 256.585 29.48C255.305 29.48 254.065 29.86 252.865 30.62C251.665 31.34 250.665 32.28 249.865 33.44V54.62C249.865 55.62 248.945 56.12 247.105 56.12H246.445Z" transform="translate(-5 -10)" fill="white"/>
</svg>
